<svg width="10" height="6" viewBox="0 0 10 6" fill="none" xmlns="http://www.w3.org/2000/svg">
<g filter="url(#filter0_d)">
<path d="M5 5C4.71278 4.99607 4.49314 4.90165 4.2566 4.68527L1.24498 1.80551C1.07603 1.64814 1 1.47111 1 1.24686C1 0.798377 1.39282 0.428571 1.86589 0.428571C2.10665 0.428571 2.33052 0.519055 2.51214 0.69609L4.99155 3.1077L7.48363 0.69609C7.66526 0.522989 7.88912 0.428571 8.13411 0.428571C8.60718 0.428571 9 0.798377 9 1.24686C9 1.46717 8.91975 1.64421 8.75502 1.80551L5.73918 4.68527C5.50264 4.90558 5.27878 5 5 5Z" fill="#979BA3"/>
</g>
<defs>
<filter id="filter0_d" x="0.5" y="0.428589" width="9" height="5.57143" filterUnits="userSpaceOnUse" color-interpolation-filters="sRGB">
<feFlood flood-opacity="0" result="BackgroundImageFix"/>
<feColorMatrix in="SourceAlpha" type="matrix" values="0 0 0 0 0 0 0 0 0 0 0 0 0 0 0 0 0 0 127 0"/>
<feOffset dy="0.5"/>
<feGaussianBlur stdDeviation="0.25"/>
<feColorMatrix type="matrix" values="0 0 0 0 0.164706 0 0 0 0 0.517647 0 0 0 0 1 0 0 0 0.2 0"/>
<feBlend mode="normal" in2="BackgroundImageFix" result="effect1_dropShadow"/>
<feBlend mode="normal" in="SourceGraphic" in2="effect1_dropShadow" result="shape"/>
</filter>
</defs>
</svg>
